<svg xmlns="http://www.w3.org/2000/svg" viewBox="0 0 1600 760" fill="none" role="img" aria-label="">
  <g stroke="#8a8f98" stroke-width="1" opacity="0.35">
    <line x1="0" y1="130" x2="1600" y2="130" />
    <line x1="0" y1="260" x2="1600" y2="260" />
    <line x1="0" y1="380" x2="1600" y2="380" />
    <line x1="0" y1="500" x2="1600" y2="500" />
    <line x1="0" y1="630" x2="1600" y2="630" />
    <line x1="200" y1="0" x2="200" y2="760" />
    <line x1="450" y1="0" x2="450" y2="760" />
    <line x1="700" y1="0" x2="700" y2="760" />
    <line x1="950" y1="0" x2="950" y2="760" />
    <line x1="1200" y1="0" x2="1200" y2="760" />
    <line x1="1450" y1="0" x2="1450" y2="760" />
  </g>
  <g fill="#8a8f98">
    <path d="M210 150c40-34 110-44 165-30 38 10 60 34 92 36 26 2 44-12 64 0 18 11 14 38 4 58-12 24-44 30-58 54-12 20-6 48-26 62-22 16-52 2-78 10-24 7-40 32-66 30-30-2-44-36-44-66 0-30 16-56 10-86-5-26-30-46-26-74 2-16 18-26 33-30z" />
    <path d="M392 410c26-10 50 6 64 28 16 26 14 60 22 90 9 34 30 64 28 100-2 30-22 60-50 66-26 6-50-14-60-40-12-32-6-70-16-104-9-30-32-54-36-86-3-26 22-46 48-54z" />
    <path d="M470 78c18-8 40 0 50 16 9 16 2 38-14 46-18 9-42 2-50-16-7-18 0-38 14-46z" />
    <path d="M768 150c30-14 66-6 92 12 22 16 30 44 26 70-4 22-22 38-44 42-26 5-54-6-72-26-16-18-22-46-14-70 5-16 6-22 12-28z" />
    <path d="M788 280c34-12 74-6 104 12 26 16 36 48 40 78 5 38-4 78-22 112-16 30-44 54-50 88-5 30 6 64-12 90-16 24-52 26-72 6-18-18-16-50-22-76-8-34-30-62-36-96-7-38 2-78 14-114 12-36 28-74 56-92 6-4 0-2 0-8z" />
    <path d="M900 110c44-22 98-22 146-8 50 14 92 46 142 56 42 8 88 0 126 22 30 18 40 56 32 90-9 38-40 64-76 76-44 14-92 6-138 12-40 5-78 24-118 20-36-4-66-30-78-64-12-36-6-78-22-112-15-32-44-56-46-92-1-18 14-22 30-28z" />
    <path d="M1210 366c30-10 64 2 84 26 16 20 18 50 6 72-12 24-40 36-66 32-28-4-50-28-54-56-4-30 6-66 30-74z" />
    <path d="M1340 472c44-18 98-12 134 18 26 22 34 60 22 92-12 34-46 56-82 56-40 0-78-26-92-64-12-34-2-76 18-102z" />
  </g>
</svg>
